<?xml version="1.0" encoding="utf-8"?>
<svg xmlns="http://www.w3.org/2000/svg"
     viewBox="0 0 1200 1200">
    <title>Cathode</title>

    <defs>
        <linearGradient id="background"
                        x1="1"
                        x2="0"
                        y1="1"
                        y2="0">
            <stop offset="0"
                  stop-color="#111111" />
            <stop offset="1"
                  stop-color="#111111"
                  stop-opacity="0.5" />
        </linearGradient>
    </defs>

    <path d="m1200 206.9c0-54.872-21.799-107.49-60.603-146.29-38.799-38.805-91.421-60.603-146.29-60.603h-786.21c-54.872 0-107.49 21.799-146.29 60.603-38.805 38.799-60.603 91.421-60.603 146.29v786.21c0 54.872 21.799 107.49 60.603 146.29 38.799 38.804 91.421 60.603 146.29 60.603h786.21c54.872 0 107.49-21.799 146.29-60.603 38.804-38.799 60.603-91.421 60.603-146.29zm-68.966 787.93v.006c0 36.582-14.536 71.665-40.404 97.533-25.862 25.868-60.945 40.398-97.527 40.398h-786.21c-36.582 0-71.665-14.53-97.527-40.398-25.868-25.868-40.404-60.951-40.404-97.533v-787.93c0-36.582 14.536-71.665 40.404-97.527 25.862-25.868 60.945-40.404 97.527-40.404h786.21c36.582 0 71.665 14.536 97.527 40.404 25.868 25.862 40.404 60.945 40.404 97.527z" />
    <path d="m327.59 406.9c-8.9293-6.7013-20.547-8.6599-31.177-5.2645-10.63 3.3956-18.964 11.724-22.359 22.359-3.3956 10.63-1.4312 22.247 5.2645 31.177l206.9 206.9-206.9 206.9c-7.9977 5.9997-12.998 15.171-13.706 25.144-.71278 9.9677 2.9409 19.756 10.013 26.828 7.0661 7.0661 16.853 10.72 26.828 10.013 9.9677-.70717 19.144-5.7079 25.138-13.706l231.03-231.03c6.3195-6.4431 9.8611-15.115 9.8611-24.139 0-9.0244-3.5414-17.69-9.8611-24.139z"
          fill="#00cc00" />
    <path d="m898.28 837.93h-286.21c-12.319 0-23.701 6.5721-29.858 17.241-6.1625 10.669-6.1625 23.813 0 34.483 6.1569 10.669 17.539 17.241 29.858 17.241h286.21c12.319 0 23.701-6.5721 29.858-17.241 6.1625-10.669 6.1625-23.813 0-34.483-6.1569-10.669-17.539-17.241-29.858-17.241z"
          fill="#cc0000" />

    <path d="m392.41 62.543c-71.091.91549-142.39-1.7145-213.33 3.8342-21.875 2.5089-41.647 14.026-59.287 26.562-19.329 16.011-35.935 35.435-45.509 58.852-13.262 27.635-8.87 59.602-10.93 89.277-1.5773 236.16.24652 472.34.08003 708.51 1.0847 24.97-2.054 50.566 1.7194 75.144 8.5381 32.625 27.333 62.032 53.803 82.996 27.352 23.957 64.728 32.206 100.31 30.299 233.16 1.5865 466.32.6685 699.48.2606 39.468-1.4035 79.629 1.738 118.57-5.9117 25.884-9.4195 49.165-25.546 66.539-47.059 17.646-20.267 28.31-46.385 32.602-72.542-.4491-268.18 1.0339-536.36-1.1148-804.53.4022-19.292-.6258-38.928-10.087-56.256-10.946-28.48-32.839-51.918-58.323-68.105-17.727-10.352-36.97-18.664-57.911-18.647-105.86-4.5172-211.88-1.953-317.82-2.7043-99.603.03477-199.21-.03161-298.81.01149zm-80.384 344.3c10.677 3.0997 17.296 14.901 26.223 21.454 74.795 72.664 149.44 145.39 220.8 221.38 7.5934 12.191.90106 27.491-9.7899 35.43-74.626 77.136-150.72 153.71-227.95 227.79-7.916 8.8986-19.897 16.323-31.777 9.8825-15.797-5.1951-20.948-25.451-14.307-39.226 69.371-74.31 142.73-144.87 214.3-217.21 6.1003-12.492-12.326-19.23-18.136-28.325-62.292-63.368-126.84-124.87-187.26-189.81-13.653-13.498.13994-40.457 18.457-40.861 3.1241-.4445 6.2882-.65427 9.4428-.50532zm387.4 438.32c69.618.0129 139.24.006 208.85.007 14.552 6.3957 21.267 23.386 15.657 38.184-3.9451 11.394-15.935 18.473-27.846 15.636-94.658-.40132-189.37 2.0175-283.99-.38721-10.429.53522-21.372-2.3677-25.289-13.116-2.8986-12.487-3.2655-30.526 10.164-37.053 33.661-5.327 68.471-2.2527 102.45-3.271z"
          fill="url(#background)" />
</svg>
