<?xml version="1.0" encoding="utf-8"?>
<svg xmlns="http://www.w3.org/2000/svg"
     viewBox="0 0 1200 1200">
    <title>System.Terminal</title>

    <defs>
        <linearGradient id="background"
                        x1="1"
                        x2="0"
                        y1="1"
                        y2="0">
            <stop stop-color="#111111"
                  offset="0" />
            <stop stop-color="#111111"
                  offset="1"
                  stop-opacity="0.5" />
        </linearGradient>
    </defs>

    <path d="m1017.6 326.4c0-38.191-15.172-74.816-42.18-101.82-27.004-27.008-63.629-42.18-101.82-42.18h-547.2c-38.191 0-74.816 15.172-101.82 42.18-27.008 27.004-42.18 63.629-42.18 101.82v547.2c0 38.191 15.172 74.816 42.18 101.82 27.004 27.008 63.629 42.18 101.82 42.18h547.2c38.191 0 74.816-15.172 101.82-42.18 27.008-27.004 42.18-63.629 42.18-101.82zm-48 548.4v.003906c0 25.461-10.117 49.879-28.121 67.883-18 18.004-42.418 28.117-67.879 28.117h-547.2c-25.461 0-49.879-10.113-67.879-28.117-18.004-18.004-28.121-42.422-28.121-67.883v-548.4c0-25.461 10.117-49.879 28.121-67.879 18-18.004 42.418-28.121 67.879-28.121h547.2c25.461 0 49.879 10.117 67.879 28.121 18.004 18 28.121 42.418 28.121 67.879z" />
    <path d="m410.4 465.6c-6.2148-4.6641-14.301-6.0273-21.699-3.6641-7.3984 2.3633-13.199 8.1602-15.562 15.562-2.3633 7.3984-.99609 15.484 3.6641 21.699l144 144-144 144c-5.5664 4.1758-9.0469 10.559-9.5391 17.5-.49609 6.9375 2.0469 13.75 6.9688 18.672 4.918 4.918 11.73 7.4609 18.672 6.9688 6.9375-.49219 13.324-3.9727 17.496-9.5391l160.8-160.8c4.3984-4.4844 6.8633-10.52 6.8633-16.801s-2.4648-12.312-6.8633-16.801z"
          fill="#00cc00" />
    <path d="m807.6 765.6h-199.2c-8.5742 0-16.496 4.5742-20.781 12-4.2891 7.4258-4.2891 16.574 0 24 4.2852 7.4258 12.207 12 20.781 12h199.2c8.5742 0 16.496-4.5742 20.781-12 4.2891-7.4258 4.2891-16.574 0-24-4.2852-7.4258-12.207-12-20.781-12z"
          fill="#aaaaaa" />

    <path d="m455.52 225.93c-49.479.63718-99.104-1.1933-148.48 2.6686-15.225 1.7462-28.986 9.7622-41.264 18.487-13.453 11.144-25.011 24.663-31.674 40.961-9.2307 19.234-6.1735 41.483-7.6075 62.137-1.0978 164.37.17158 328.75.0557 493.12.75498 17.379-1.4296 35.194 1.1967 52.3 5.9425 22.707 19.024 43.174 37.447 57.765 19.037 16.674 45.051 22.415 69.816 21.088 162.28 1.1042 324.56.46528 486.84.18138 27.47-.97679 55.422 1.2097 82.525-4.1145 18.015-6.556 34.219-17.78 46.311-32.753 12.282-14.106 19.704-32.284 22.691-50.489-.31258-186.65.71963-373.31-.77586-559.95.27991-13.427-.43555-27.094-7.0205-39.154-7.6186-19.822-22.856-36.135-40.593-47.401-12.338-7.2048-25.731-12.99-40.306-12.978-73.678-3.144-147.47-1.3593-221.2-1.8822-69.324.0242-138.65-.022-207.97.008zm-55.947 239.63c7.4309 2.1574 12.038 10.371 18.251 14.932 52.057 50.574 104.01 101.19 153.68 154.08 5.285 8.4846.62714 19.134-6.8138 24.659-51.94 53.687-104.9 106.98-158.65 158.54-5.5095 6.1934-13.848 11.361-22.117 6.8782-10.995-3.6158-14.58-17.714-9.9576-27.301 48.282-51.72 99.339-100.83 149.15-151.18 4.2458-8.6944-8.5791-13.384-12.623-19.714-43.355-44.104-88.283-86.907-130.33-132.11-9.5028-9.3949.0974-28.158 12.846-28.439 2.1744-.30937 4.3766-.45537 6.5722-.3517zm269.63 305.07c48.454.009 96.909.004 145.36.005 10.128 4.4514 14.802 16.277 10.897 26.576-2.7458 7.9302-11.091 12.857-19.381 10.883-65.882-.27932-131.8 1.4042-197.66-.2695-7.2589.37251-14.875-1.6479-17.601-9.129-2.0174-8.691-2.2728-21.246 7.0742-25.789 23.428-3.7076 47.656-1.5679 71.306-2.2766z"
          fill="url(#background)" />
</svg>
